PathFileType	4	(X/Y/Z)	/Users/itak/Documents/Research/Walk-IL/dataset/trc/00364_00011.trc
DataRate	CameraRate	NumFrames	NumMarkers	Units	OrigDataRate	OrigDataStartFrame	OrigNumFrames
100.000000	100.000000	4	56	mm	100.000000	38	306
Frame#	Time	RPSI			LPSI			L3			STRN			T10			C7			CLAV			RBAK			LBAK			LSHO			LUPA			LAEL			LAOL			LWTS			LWPS			LFRA			LIFD			LHPS			LHTS			RSHO			RUPA			RAEL			RAOL			RWTS			RWPS			RFRA			RIFD			RHTS			RHPS			RBHD			LFHD			RFHD			LBHD			LHIP			RHIP			RASI			LASI			LKNE			LTHI			LANK			LTIP			LTOE			LMT1			LMT5			LHEE			RKNE			RTHI			RANK			RTIP			RTOE			RMT1			RMT5			RHEE			*53			*54			*55			
		X1	Y1	Z1	X2	Y2	Z2	X3	Y3	Z3	X4	Y4	Z4	X5	Y5	Z5	X6	Y6	Z6	X7	Y7	Z7	X8	Y8	Z8	X9	Y9	Z9	X10	Y10	Z10	X11	Y11	Z11	X12	Y12	Z12	X13	Y13	Z13	X14	Y14	Z14	X15	Y15	Z15	X16	Y16	Z16	X17	Y17	Z17	X18	Y18	Z18	X19	Y19	Z19	X20	Y20	Z20	X21	Y21	Z21	X22	Y22	Z22	X23	Y23	Z23	X24	Y24	Z24	X25	Y25	Z25	X26	Y26	Z26	X27	Y27	Z27	X28	Y28	Z28	X29	Y29	Z29	X30	Y30	Z30	X31	Y31	Z31	X32	Y32	Z32	X33	Y33	Z33	X34	Y34	Z34	X35	Y35	Z35	X36	Y36	Z36	X37	Y37	Z37	X38	Y38	Z38	X39	Y39	Z39	X40	Y40	Z40	X41	Y41	Z41	X42	Y42	Z42	X43	Y43	Z43	X44	Y44	Z44	X45	Y45	Z45	X46	Y46	Z46	X47	Y47	Z47	X48	Y48	Z48	X49	Y49	Z49	X50	Y50	Z50	X51	Y51	Z51	X52	Y52	Z52	X53	Y53	Z53	X54	Y54	Z54	X55	Y55	Z55	X56	Y56	Z56	

39	0.38	-562.5744018554688	955.4043579101562	834.301513671875	-605.112548828125	957.4188232421875	710.755126953125	-597.61767578125	1025.165649414062	770.392822265625	-365.9346008300781	1197.167236328125	695.3955688476562	-604.072021484375	1140.886474609375	746.6533813476562	-560.4756469726562	1384.260864257812	718.4915771484375	-405.8366088867188	1324.070190429688	700.0632934570312	-599.1180419921875	1244.025512695312	789.7035522460938	-588.2075805664062	1347.920043945312	616.9376831054688	-509.4755249023438	1365.881103515625	552.3186645507812	-517.7796630859375	1248.390869140625	480.7282104492188	-444.9781188964844	1060.246826171875	439.7236633300781	-495.45654296875	1022.140380859375	496.6873779296875	-249.0500030517578	889.2291259765625	464.5431518554688	-282.0561218261719	861.4014892578125	410.0708618164062	-389.5934448242188	971.9789428710938	422.8771362304688	-164.3474578857422	751.74462890625	454.0772399902344	-249.1528015136719	800.0518798828125	410.740234375	-202.4604339599609	829.1571655273438	442.6900939941406	-481.0174560546875	1367.350708007812	870.6851806640625	-489.1543273925781	1305.3173828125	933.9933471679688	-516.0717163085938	1043.163330078125	982.5436401367188	-542.8512573242188	1033.5537109375	892.7916870117188	-425.3187561035156	803.6251220703125	975.2161254882812	-475.1019897460938	797.968505859375	1033.822509765625	-501.5156860351562	975.3823852539062	1000.205139160156	-433.2876892089844	631.5509033203125	999.7706298828125	-411.8565979003906	702.3466186523438	1000.995666503906	-468.4107360839844	712.7130126953125	1039.323364257812	-471.1015014648438	1585.353881835938	802.611572265625	-371.7579956054688	1594.820434570312	619.779296875	-335.0466613769531	1594.556274414062	713.9771118164062	-548.06640625	1582.220336914062	680.1396484375	-559.8615112304688	896.1771850585938	583.6680297851562	-443.4833068847656	909.757080078125	906.3809814453125	-365.3872680664062	939.634521484375	827.2466430664062	-425.1777954101562	920.8899536132812	597.2894287109375	-537.844482421875	440.4180297851562	652.9977416992188	-533.3890380859375	578.5025024414062	621.7821655273438	-690.5620727539062	53.94901275634766	757.1486206054688	-608.7587280273438	229.2181396484375	699.3038330078125	-479.313232421875	43.12591552734375	782.4059448242188	-543.2665405273438	30.56258201599121	833.2182006835938	-569.91259765625	47.40398025512695	725.3297729492188	-713.9276733398438	53.87725067138672	828.491455078125	-249.3318176269531	482.818603515625	849.487548828125	-315.1199340820312	729.1763916015625	881.4000244140625	-155.8813323974609	66.063720703125	848.5275268554688	-200.9633178710938	374.6357116699219	839.5053100585938	-2.003784894943237	122.9183044433594	738.5450439453125	-63.02256011962891	97.97894287109375	715.1216430664062	-55.3715705871582	79.92462158203125	830.5987548828125	-218.9835815429688	53.69113540649414	821.01220703125	nan	nan	nan	nan	nan	nan	nan	nan	nan	
40	0.39	-550.6173706054688	953.1973266601562	833.3347778320312	-595.1740112304688	955.3712768554688	710.4904174804688	-586.3403930664062	1022.71826171875	769.3681640625	-356.6370849609375	1194.822509765625	691.9570922851562	-594.0980834960938	1139.03125	746.1157836914062	-550.8712768554688	1381.918212890625	716.9840087890625	-396.4013671875	1321.761108398438	697.08642578125	-588.8641357421875	1241.488037109375	788.3974609375	-579.6255493164062	1345.7060546875	615.5929565429688	-501.3506164550781	1363.704467773438	550.3021850585938	-509.8323974609375	1246.205322265625	478.8002014160156	-436.0477600097656	1058.460571289062	437.3807067871094	-486.2939147949219	1020.016906738281	494.330810546875	-237.8459167480469	890.322509765625	462.6930847167969	-270.4252014160156	861.9678955078125	408.1690063476562	-379.4979248046875	970.9542236328125	420.7061157226562	-151.1840972900391	753.9922485351562	452.5505981445312	-236.4969482421875	801.19921875	408.9826049804688	-190.1251220703125	831.1777954101562	440.851806640625	-470.10791015625	1364.759765625	868.4769897460938	-477.9063110351562	1302.833129882812	931.8494262695312	-505.95947265625	1040.892333984375	980.7167358398438	-532.8909912109375	1031.178955078125	891.0501098632812	-416.5205078125	800.8434448242188	973.7991943359375	-466.1940612792969	795.7088012695312	1032.591064453125	-491.6745910644531	973.0875244140625	998.5950317382812	-425.635986328125	628.8798217773438	999.155029296875	-403.7613220214844	699.45068359375	1000.057067871094	-460.0748596191406	710.420654296875	1038.432739257812	-460.5182189941406	1582.896606445312	800.6190795898438	-363.1101684570312	1592.744384765625	616.8282470703125	-325.4051513671875	1592.366455078125	710.6234130859375	-538.7655639648438	1579.944458007812	678.9697875976562	-552.0457763671875	894.2675170898438	582.6079711914062	-430.591552734375	907.111083984375	903.3721923828125	-353.4921264648438	937.3916625976562	823.0949096679688	-416.9967041015625	918.883056640625	593.93505859375	-532.8555297851562	439.1748962402344	651.5784912109375	-527.5357666015625	577.2469482421875	619.9891967773438	-690.10546875	54.61122131347656	758.4239501953125	-606.2306518554688	228.9909820556641	699.3302612304688	-479.0296630859375	42.9028434753418	782.3069458007812	-542.7840576171875	30.72102546691895	833.4119262695312	-569.9848022460938	47.72153472900391	725.67529296875	-713.1807250976562	55.5228157043457	829.8212280273438	-239.9475402832031	478.9712219238281	847.16015625	-304.6930236816406	725.1604614257812	877.9798583984375	-127.0624237060547	66.73867034912109	837.2298583984375	-187.6298828125	373.8492431640625	835.274169921875	20.91680717468262	132.5974731445312	723.6906127929688	-39.86746597290039	105.7046051025391	701.8314819335938	-27.52546501159668	85.10281372070312	816.595458984375	-190.6415252685547	52.35027694702148	811.4182739257812	nan	nan	nan	nan	nan	nan	nan	nan	nan	
41	0.4	-538.641357421875	950.7933349609375	832.29248046875	-585.1559448242188	953.2106323242188	710.1629028320312	-574.9541625976562	1020.193908691406	768.2838745117188	-347.2495727539062	1192.436645507812	688.4852905273438	-584.0549926757812	1136.997314453125	745.4833984375	-541.1736450195312	1379.506469726562	715.4596557617188	-386.8912658691406	1319.405395507812	694.07470703125	-578.5211181640625	1238.911254882812	787.1481323242188	-570.9672241210938	1343.423828125	614.27490234375	-493.1808471679688	1361.410888671875	548.2467041015625	-501.9465942382812	1243.87060546875	476.9054870605469	-427.406005859375	1056.441528320312	435.0685119628906	-477.4145202636719	1017.709106445312	492.0336303710938	-227.1167449951172	891.0867309570312	460.9245300292969	-259.2608642578125	862.2216186523438	406.348876953125	-369.7585754394531	969.6786499023438	418.5971374511719	-138.5472564697266	755.9102783203125	451.1914367675781	-224.3648834228516	802.0236206054688	407.3457946777344	-178.3377380371094	832.805908203125	439.1849060058594	-459.0650634765625	1362.111572265625	866.2533569335938	-466.505126953125	1300.258666992188	929.692626953125	-495.6866149902344	1038.514282226562	978.841552734375	-522.7886962890625	1028.71826171875	889.270751953125	-407.5582275390625	797.9778442382812	972.29150390625	-457.140869140625	793.35400390625	1031.273803710938	-481.6758117675781	970.7006225585938	996.9382934570312	-417.7201843261719	626.1220092773438	998.4154052734375	-395.4629211425781	696.5029907226562	999.0264892578125	-451.5349731445312	708.0476684570312	1037.440673828125	-449.8257751464844	1580.443969726562	798.5059204101562	-354.3620300292969	1590.618408203125	613.7902221679688	-315.6570739746094	1590.147827148438	707.1739501953125	-529.332275390625	1577.642578125	677.7174682617188	-544.0233154296875	892.3683471679688	581.5211791992188	-417.7374877929688	904.3378295898438	900.3489379882812	-341.682861328125	935.002685546875	818.9622802734375	-408.6578674316406	916.8623046875	590.5991821289062	-527.8258056640625	437.990478515625	650.1290893554688	-521.6173095703125	576.0686645507812	618.132568359375	-689.6278686523438	55.46966171264648	759.7835693359375	-603.6819458007812	228.8972625732422	699.3740844726562	-478.7333679199219	42.66706085205078	782.2102661132812	-542.2450561523438	30.89078521728516	833.5997924804688	-570.077880859375	48.07711029052734	726.055419921875	-712.3599243164062	57.44607162475586	831.243896484375	-230.0092926025391	475.4545288085938	844.6245727539062	-293.9410705566406	721.28564453125	874.5714721679688	-101.1985473632812	67.68624877929688	826.4346923828125	-174.6947784423828	373.1684265136719	831.0789184570312	41.3140983581543	141.1247253417969	709.859619140625	-19.3269100189209	112.73583984375	689.4718017578125	-2.651601076126099	89.85413360595703	803.396728515625	-165.1464691162109	51.64625549316406	802.1800537109375	nan	nan	nan	nan	nan	nan	nan	nan	nan	
42	0.41	-526.70361328125	948.2442626953125	831.1676635742188	-575.0662841796875	950.9797973632812	709.7427978515625	-563.554931640625	1017.652221679688	767.1605224609375	-337.7660522460938	1190.052490234375	684.9852905273438	-573.9340209960938	1134.822631835938	744.7274169921875	-531.3715209960938	1377.074462890625	713.9110107421875	-377.2994995117188	1317.044555664062	691.0406494140625	-568.1036376953125	1236.358520507812	785.9478759765625	-562.215576171875	1341.116333007812	612.9728393554688	-484.9483642578125	1359.041015625	546.1476440429688	-494.110595703125	1241.416015625	475.0450744628906	-419.0513000488281	1054.2099609375	432.7965393066406	-468.818115234375	1015.245971679688	489.8118286132812	-216.8783111572266	891.5173950195312	459.234619140625	-248.5798950195312	862.1536865234375	404.6103210449219	-360.4039916992188	968.1536254882812	416.5494995117188	-126.4582672119141	757.48974609375	449.9727783203125	-212.7777709960938	802.5078125	405.8223571777344	-167.1163024902344	834.0306396484375	437.6606750488281	-447.8919067382812	1359.44970703125	864.0133056640625	-454.9586791992188	1297.625732421875	927.5156860351562	-485.21142578125	1036.0595703125	976.9232788085938	-512.5238037109375	1026.202392578125	887.4652099609375	-398.42578125	795.0499877929688	970.670166015625	-447.9026794433594	790.9367065429688	1029.863647460938	-471.4753723144531	968.2590942382812	995.2275390625	-409.5667419433594	623.2987060546875	997.5264282226562	-386.9481506347656	693.5460205078125	997.860595703125	-442.7771911621094	705.6370239257812	1036.335815429688	-439.0184020996094	1578.043334960938	796.27880859375	-345.5133972167969	1588.480590820312	610.6563720703125	-305.8019714355469	1587.943725585938	703.6207885742188	-519.7678833007812	1575.35888671875	676.3863525390625	-535.770751953125	890.5103149414062	580.3932495117188	-404.9786071777344	901.5164794921875	897.3428955078125	-329.9924926757812	932.52490234375	814.9028930664062	-400.150634765625	914.8410034179688	587.3067016601562	-522.7094116210938	436.8892211914062	648.6538696289062	-515.6326293945312	574.9781494140625	616.253662109375	-689.1369018554688	56.57702255249023	761.1276245117188	-601.0765380859375	228.9443969726562	699.3963012695312	-478.4432983398438	42.4306526184082	782.1258544921875	-541.6809692382812	31.05763244628906	833.76416015625	-570.1500244140625	48.46477508544922	726.4491577148438	-711.49365234375	59.65038681030273	832.6632080078125	-219.3787231445312	472.3773803710938	841.7127075195312	-282.7420959472656	717.756591796875	871.1065673828125	-78.59465026855469	68.50406646728516	816.4651489257812	-162.0528411865234	372.4967651367188	826.8197631835938	59.14680862426758	147.8868408203125	697.303955078125	-1.473223209381104	118.4875411987305	678.2886352539062	19.04348182678223	93.65965270996094	791.3086547851562	-142.8316345214844	51.23250579833984	793.6026611328125	nan	nan	nan	nan	nan	nan	nan	nan	nan	
